# Exported from Wings 3D 1.0.2
mtllib knight2.mtl
o cube1
#53 vertices, 69 faces
v -0.13451535 -0.80908603 0.80908603
v -0.30943872 0.96509140 0.56790837
v 0.21876753 0.95019493 0.56733185
v 0.50381356 -0.79418956 0.80966255
v -0.13451535 -0.80908603 -0.80908603
v -0.30943872 0.96509140 -0.56790837
v 0.23909820 0.95417218 -0.56032474
v 0.48348289 -0.79816681 -0.81666966
v -0.53527155 2.58054322 0.45522166
v 0.32820378 2.48986910 0.43654557
v 0.32820378 2.48986910 -0.43654557
v -0.53527155 2.58054322 -0.45522166
v -0.55329608 4.26173853 0.55329608
v 0.55329608 4.26173853 0.55329608
v 0.55329608 4.26173853 -0.55329608
v -0.55329608 4.26173853 -0.55329608
v -0.80710088 4.38429702 0.0000000e+0
v 0.0000000e+0 4.38429702 -0.80710088
v 0.80710088 4.38429702 0.0000000e+0
v 0.0000000e+0 4.38429702 0.80710088
v 0.0000000e+0 5.12153450 0.0000000e+0
v 1.02330566 3.31799931 -0.34353500
v 1.02330566 3.31799931 0.34353500
v -0.73201970 1.77511204 0.72472969
v 0.74153510 1.77827556 0.72176430
v -0.73201970 1.77511204 -0.72472969
v 0.74153510 1.77827556 -0.72176430
v -0.52247103 2.10039932 1.27261282
v 0.55009729 2.11272284 1.27417621
v 0.35031062 2.59754236 1.14654511
v -0.31545068 2.58328864 1.14886310
v 0.55009729 2.11272284 -1.27417621
v -0.52247103 2.10039932 -1.27261282
v -0.31545068 2.58328864 -1.14886310
v 0.35031062 2.59754236 -1.14654511
v -0.32682999 0.61768753 1.7515308e-17
v 0.38274970 0.41307443 -7.0071147e-3
v -0.73571525 1.98617401 1.01099297
v 0.53831655 1.89899696 0.99077780
v 0.53831655 1.89899696 -0.99077780
v -0.73571525 1.98617401 -1.01099297
v 0.18415658 1.01636586 1.56382351
v 0.63119407 1.01636586 1.56382351
v 0.53984492 1.18544578 1.83995156
v 0.27550573 1.18544578 1.83995156
v 0.63119407 1.01636586 -1.56382351
v 0.18415658 1.01636586 -1.56382351
v 0.27550573 1.18544578 -1.83995156
v 0.53984492 1.18544578 -1.83995156
v -0.23067267 -0.79080034 0.40454302
v 0.52044301 -0.87970790 0.40396650
v -0.23067267 -0.79080034 -0.40454302
v 0.54077369 -0.87573065 -0.39695938
vn -0.56553811 -0.49677850 0.65831434
vn 0.56562940 -0.42733445 0.70530040
vn -0.56879694 -0.49827298 -0.65436540
vn 0.56273587 -0.42594929 -0.70844587
vn 0.0000000e+0 1.00000000 0.0000000e+0
vn 0.85447890 -4.7542769e-2 0.51730600
vn 0.77982932 -0.17852335 -0.59999637
vn 0.50392505 0.77417695 0.38302689
vn -0.34070144 0.77744673 0.52867675
vn -0.34070144 0.77744673 -0.52867675
vn 0.50392505 0.77417695 -0.38302689
vn 0.93573301 -0.35267212 -5.1105261e-3
vn -0.40940627 -0.90143261 0.14073293
vn 0.58762711 -0.79490684 -0.15105459
vn 0.55702196 -0.13375692 0.81965579
vn -0.33876960 -0.29739225 0.89263263
vn 0.58762711 -0.79490684 0.15105459
vn -0.40940627 -0.90143261 -0.14073293
vn -0.33876960 -0.29739225 -0.89263263
vn 0.55702196 -0.13375692 -0.81965579
vn -0.58562037 -0.71214424 -0.38716839
vn 0.53289100 -0.69617651 -0.48100462
vn -0.58228140 -0.70998643 0.39606519
vn 0.53710502 -0.69534194 0.47751207
vn -0.65926881 5.2797116e-2 0.75005140
vn 6.4393640e-4 -0.18670703 0.98241543
vn -0.97688766 -0.21375335 0.0000000e+0
vn -0.65926881 5.2797116e-2 0.75005140
vn -0.97688766 -0.21375335 0.0000000e+0
vn 0.50303649 -0.12408114 0.85531173
vn 0.50303649 -0.12408114 0.85531173
vn 0.50303649 -0.12408114 0.85531173
vn 0.50303649 -0.12408114 0.85531173
vn -0.65934771 5.5176209e-2 -0.74981076
vn 4.3864128e-3 -0.19137214 -0.98150775
vn -0.65934771 5.5176209e-2 -0.74981076
vn -0.95361092 -0.30104189 1.1536714e-16
vn -0.95361092 -0.30104189 1.1536714e-16
vn -0.95361092 -0.30104189 1.1536714e-16
vn 0.50102328 -0.12272465 -0.85668800
vn 0.50102328 -0.12272465 -0.85668800
vn 0.50102328 -0.12272465 -0.85668800
vn 0.50102328 -0.12272465 -0.85668800
vn -0.97315562 -9.3592654e-2 0.21025831
vn -0.20723550 -0.12771530 0.96991868
vn -0.20723550 -0.12771530 0.96991868
vn -0.97315562 -9.3592654e-2 0.21025831
vn -0.71730759 0.69616682 2.8663108e-2
vn -0.71730759 0.69616682 2.8663108e-2
vn -0.71730759 0.69616682 2.8663108e-2
vn -0.97143656 0.23729942 1.2792065e-16
vn -0.97143656 0.23729942 1.2792065e-16
vn 0.41868830 -0.31017335 0.85351778
vn 0.41868830 -0.31017335 0.85351778
vn 0.41868830 -0.31017335 0.85351778
vn 0.41868830 -0.31017335 0.85351778
vn 0.82388048 0.54327469 0.16147311
vn 0.61068179 0.78132596 -0.12883130
vn 0.61068179 0.78132596 -0.12883130
vn 0.82388048 0.54327469 0.16147311
vn 0.41868830 -0.31017335 -0.85351778
vn 0.41868830 -0.31017335 -0.85351778
vn 0.41868830 -0.31017335 -0.85351778
vn 0.41868830 -0.31017335 -0.85351778
vn 0.84039076 0.53121909 -0.10746927
vn 0.61068179 0.78132596 0.12883130
vn 0.84039076 0.53121909 -0.10746927
vn 0.61068179 0.78132596 0.12883130
vn 0.84039076 0.53121909 -0.10746927
vn -0.97315562 -9.3592654e-2 -0.21025831
vn -0.97315562 -9.3592654e-2 -0.21025831
vn -0.20723550 -0.12771530 -0.96991868
vn -0.20723550 -0.12771530 -0.96991868
vn -0.71730759 0.69616682 -2.8663108e-2
vn -0.71730759 0.69616682 -2.8663108e-2
vn -0.71730759 0.69616682 -2.8663108e-2
vn -0.97143656 0.23729942 7.1076094e-17
vn -0.67091227 0.31083653 0.67324393
vn -0.67091227 0.31083653 0.67324393
vn -0.67091227 0.31083653 0.67324393
vn 0.39129183 0.26127030 0.88239931
vn 0.39129183 0.26127030 0.88239931
vn 0.83431342 0.31494296 0.45247326
vn 0.39129183 0.26127030 0.88239931
vn 0.39129183 0.26127030 -0.88239931
vn 0.39129183 0.26127030 -0.88239931
vn 0.39129183 0.26127030 -0.88239931
vn 0.83431342 0.31494296 -0.45247326
vn -0.67091227 0.31083653 -0.67324393
vn -0.67091227 0.31083653 -0.67324393
vn -0.67091227 0.31083653 -0.67324393
vn -0.91856406 0.39527214 1.1961406e-16
vn -0.91856406 0.39527214 1.1589888e-16
vn -0.91856406 0.39527214 1.0141152e-16
vn -0.91856406 0.39527214 1.0141152e-16
vn -0.91856406 0.39527214 1.1589888e-16
vn -0.67442864 0.73834004 0.0000000e+0
vn -0.67442864 0.73834004 0.0000000e+0
vn -2.7740318e-3 0.36354025 -0.93157436
vn -2.7740318e-3 0.36354025 -0.93157436
vn -2.7740318e-3 0.36354025 -0.93157436
vn -2.7740318e-3 0.36354025 -0.93157436
vn -2.7740318e-3 0.36354025 -0.93157436
vn 0.0000000e+0 0.73834004 -0.67442864
vn 0.0000000e+0 0.73834004 -0.67442864
vn 0.35418542 0.86550874 0.35418542
vn 0.95438856 0.29856736 0.0000000e+0
vn 0.35418542 0.86550874 -0.35418542
vn 0.95438856 0.29856736 0.0000000e+0
vn 0.67442864 0.73834004 0.0000000e+0
vn 0.67442864 0.73834004 0.0000000e+0
vn 0.95438856 0.29856736 0.0000000e+0
vn -2.7740318e-3 0.36354025 0.93157436
vn -2.7740318e-3 0.36354025 0.93157436
vn -2.7740318e-3 0.36354025 0.93157436
vn -2.7740318e-3 0.36354025 0.93157436
vn -2.7740318e-3 0.36354025 0.93157436
vn 0.0000000e+0 0.73834004 0.67442864
vn 0.0000000e+0 0.73834004 0.67442864
vn 0.63833212 -0.46707164 -0.61186289
vn 0.63833212 -0.46707164 -0.61186289
vn 0.93562538 0.26488233 -0.23332918
vn 0.93562538 0.26488233 -0.23332918
vn 0.63833212 -0.46707164 0.61186289
vn 0.63833212 -0.46707164 0.61186289
vn 0.93562538 0.26488233 0.23332918
vn 0.93562538 0.26488233 0.23332918
vn -0.52890805 -0.45930547 0.71364890
vn -0.52890805 -0.45930547 0.71364890
vn -0.52890805 -0.45930547 0.71364890
vn -0.97000879 -0.24306985 1.8381831e-16
vn -0.97000879 -0.24306985 1.8381831e-16
vn -0.97000879 -0.24306985 1.8381831e-16
vn -0.52704656 -0.46190905 -0.71334561
vn -0.52704656 -0.46190905 -0.71334561
vn -0.52704656 -0.46190905 -0.71334561
vn -0.99999091 4.2643330e-3 2.0893796e-16
vn -0.99999091 4.2643330e-3 2.0893796e-16
vn -0.99999091 4.2643330e-3 2.0893796e-16
vn -0.48206540 0.44494024 0.75474574
vn -0.45580129 0.12117549 0.88179458
vn -0.45580129 0.12117549 0.88179458
vn -0.48206540 0.44494024 0.75474574
vn 0.68812278 0.38860929 0.61275595
vn 0.68812278 0.38860929 0.61275595
vn 0.66263751 0.41355126 0.62440922
vn 0.66263751 0.41355126 0.62440922
vn 0.68812278 0.38860929 -0.61275595
vn 0.66263751 0.41355126 -0.62440922
vn 0.66263751 0.41355126 -0.62440922
vn 0.68812278 0.38860929 -0.61275595
vn -0.48206540 0.44494024 -0.75474574
vn -0.48206540 0.44494024 -0.75474574
vn -0.45580129 0.12117549 -0.88179458
vn -0.45580129 0.12117549 -0.88179458
vn -0.94940135 -0.31406345 1.1060179e-3
vn -0.94940135 -0.31406345 1.1060179e-3
vn -0.94940135 -0.31406345 1.1060179e-3
vn -0.94940135 -0.31406345 1.1060179e-3
vn -0.99874931 4.9998067e-2 0.0000000e+0
vn -0.93475224 -9.0891933e-2 0.34347766
vn -0.93475224 -9.0891933e-2 0.34347766
vn -0.65559796 -0.72374827 -0.21535961
vn -0.65559796 -0.72374827 -0.21535961
vn -0.93475224 -9.0891933e-2 0.34347766
vn 0.95086387 0.28360848 -0.12419393
vn 0.64382743 -0.25651550 0.72089253
vn 0.73372490 -0.33776713 -0.58954315
vn 0.73372490 -0.33776713 -0.58954315
vn 0.64382743 -0.25651550 0.72089253
vn 0.64382743 -0.25651550 -0.72089253
vn 0.64382743 -0.25651550 -0.72089253
vn 0.73372490 -0.33776713 0.58954315
vn 0.73372490 -0.33776713 0.58954315
vn 0.95086387 0.28360848 0.12419393
vn -0.93475224 -9.0891933e-2 -0.34347766
vn -0.93475224 -9.0891933e-2 -0.34347766
vn -0.65559796 -0.72374827 0.21535961
vn -0.65559796 -0.72374827 0.21535961
vn -0.93475224 -9.0891933e-2 -0.34347766
g cube1_default2
usemtl default2
f 1//1 4//2 3//30 2//25
f 1//1 50//21 51//22 4//2
f 2//29 6//38 36//160
f 2//28 36//159 50//21 1//1
f 3//31 25//6 24//128 2//26
f 3//33 37//12 25//6
f 4//2 51//22 37//12 3//32
f 5//3 52//23 36//158 6//36
f 6//34 7//40 8//4 5//3
f 6//39 24//133 26//139
f 6//35 26//134 27//7 7//41
f 7//42 37//12 53//24 8//4
f 8//4 53//24 52//23 5//3
f 9//44 17//92 12//70
f 9//45 20//113 13//78
f 9//52 26//138 24//132
f 9//48 31//9 30//8 10//59
f 10//53 20//114 9//46
f 10//54 23//124 14//81
f 10//57 25//6 11//65
f 10//60 39//170 25//6
f 11//61 18//99 15//85
f 11//62 22//120 23//125 10//55
f 11//69 25//6 27//7
f 11//66 35//11 34//10 12//75
f 12//71 17//93 16//89
f 12//72 18//100 11//63
f 12//77 26//137 9//51
f 12//76 41//180 26//136
f 13//79 17//94 9//47
f 13//80 20//115 17//95
f 14//84 20//117 10//56
f 14//83 23//126 19//107
f 15//87 22//121 11//64
f 16//91 18//103 12//73
f 17//96 18//102 16//90
f 17//97 21//5 18//104
f 18//101 19//108 15//86
f 18//105 21//5 19//111
f 19//106 20//116 14//82
f 19//110 21//5 20//118
f 19//109 22//122 15//88
f 19//112 23//127 22//123
f 20//119 21//5 17//98
f 24//131 6//37 2//27
f 24//129 38//161 9//49
f 25//6 37//12 27//7
f 25//6 39//167 38//162 24//130
f 26//135 41//177 40//172 27//7
f 27//7 37//12 7//43
f 27//7 40//171 11//67
f 28//141 45//16 44//15 29//147
f 29//144 30//8 31//9 28//140
f 29//145 39//166 10//58 30//8
f 29//146 44//15 43//14 39//169
f 31//9 9//50 38//165 28//143
f 32//149 49//20 48//19 33//155
f 33//152 34//10 35//11 32//148
f 33//153 41//176 12//74 34//10
f 33//154 48//19 47//18 41//179
f 35//11 11//68 40//175 32//151
f 37//12 51//22 50//21 36//156
f 38//164 42//13 45//16 28//142
f 39//168 43//14 42//13 38//163
f 40//174 46//17 49//20 32//150
f 41//178 47//18 46//17 40//173
f 43//14 44//15 45//16 42//13
f 47//18 48//19 49//20 46//17
f 52//23 53//24 37//12 36//157
