# Exported from Wings 3D 1.0.2
mtllib knight.mtl
o cube1
#23 vertices, 32 faces
v -0.80908603 -0.80908603 0.80908603
v -1.00000000 1.00000000 1.00000000
v 1.00000000 1.00000000 1.00000000
v 0.80908603 -0.80908603 0.80908603
v -0.80908603 -0.80908603 -0.80908603
v -1.00000000 1.00000000 -1.00000000
v 1.00000000 1.00000000 -1.00000000
v 0.80908603 -0.80908603 -0.80908603
v -0.44508643 2.54049639 0.44508643
v 0.44508643 2.54049639 0.44508643
v 0.44508643 2.54049639 -0.44508643
v -0.44508643 2.54049639 -0.44508643
v -0.55329608 4.26173853 0.55329608
v 0.55329608 4.26173853 0.55329608
v 0.55329608 4.26173853 -0.55329608
v -0.55329608 4.26173853 -0.55329608
v -0.80710088 4.38429702 0.0000000e+0
v 0.0000000e+0 4.38429702 -0.80710088
v 0.80710088 4.38429702 0.0000000e+0
v 0.0000000e+0 4.38429702 0.80710088
v 0.0000000e+0 5.12153450 0.0000000e+0
v 1.02330566 3.31799931 -0.34353500
v 1.02330566 3.31799931 0.34353500
vn -0.69936109 -0.14760802 0.69936109
vn 0.0000000e+0 -1.00000000 0.0000000e+0
vn -0.69936109 -0.14760802 0.69936109
vn -0.69936109 -0.14760802 0.69936109
vn -0.69936109 -0.14760802 0.69936109
vn -0.63006253 0.45391895 0.63006253
vn -0.63006253 0.45391895 0.63006253
vn 0.69936109 -0.14760802 0.69936109
vn 0.69936109 -0.14760802 0.69936109
vn 0.63006253 0.45391895 0.63006253
vn 0.63006253 0.45391895 0.63006253
vn 0.69936109 -0.14760802 0.69936109
vn 0.69936109 -0.14760802 0.69936109
vn 0.0000000e+0 -1.00000000 0.0000000e+0
vn 0.0000000e+0 -1.00000000 0.0000000e+0
vn -0.69936109 -0.14760802 -0.69936109
vn -0.69936109 -0.14760802 -0.69936109
vn -0.69936109 -0.14760802 -0.69936109
vn -0.69936109 -0.14760802 -0.69936109
vn -0.63006253 0.45391895 -0.63006253
vn -0.63006253 0.45391895 -0.63006253
vn 0.69936109 -0.14760802 -0.69936109
vn 0.69936109 -0.14760802 -0.69936109
vn 0.63006253 0.45391895 -0.63006253
vn 0.63006253 0.45391895 -0.63006253
vn 0.69936109 -0.14760802 -0.69936109
vn 0.0000000e+0 -1.00000000 0.0000000e+0
vn 0.69936109 -0.14760802 -0.69936109
vn -0.63006253 0.45391895 0.63006253
vn -0.63006253 0.45391895 0.63006253
vn -0.69714658 -0.16725220 0.69714658
vn -0.69714658 -0.16725220 0.69714658
vn -0.69714658 -0.16725220 0.69714658
vn -0.69714658 -0.16725220 0.69714658
vn 0.63006253 0.45391895 0.63006253
vn 0.63006253 0.45391895 0.63006253
vn 0.44050059 -0.28346708 0.85182489
vn 0.44050059 -0.28346708 0.85182489
vn 0.44050059 -0.28346708 0.85182489
vn 0.44050059 -0.28346708 0.85182489
vn 0.63006253 0.45391895 -0.63006253
vn 0.63006253 0.45391895 -0.63006253
vn 0.44050059 -0.28346708 -0.85182489
vn 0.44050059 -0.28346708 -0.85182489
vn 0.44050059 -0.28346708 -0.85182489
vn 0.44050059 -0.28346708 -0.85182489
vn -0.63006253 0.45391895 -0.63006253
vn -0.63006253 0.45391895 -0.63006253
vn -0.69714658 -0.16725220 -0.69714658
vn -0.69714658 -0.16725220 -0.69714658
vn -0.69714658 -0.16725220 -0.69714658
vn -0.69714658 -0.16725220 -0.69714658
vn -0.70432855 -8.8558308e-2 0.70432855
vn -0.35418544 0.86550873 0.35418544
vn -0.70432855 -8.8558308e-2 0.70432855
vn 0.33722918 -8.0170244e-2 0.93800278
vn 0.35418544 0.86550873 0.35418544
vn 0.83431341 0.31494296 0.45247328
vn 0.33722918 -8.0170244e-2 0.93800278
vn 0.33722918 -8.0170244e-2 -0.93800278
vn 0.35418544 0.86550873 -0.35418544
vn 0.33722918 -8.0170244e-2 -0.93800278
vn 0.83431341 0.31494296 -0.45247328
vn -0.70432855 -8.8558308e-2 -0.70432855
vn -0.35418544 0.86550873 -0.35418544
vn -0.70432855 -8.8558308e-2 -0.70432855
vn -0.99197330 -0.12644751 0.0000000e+0
vn -0.46536978 0.75290234 -0.46536978
vn -0.46536978 0.75290234 0.46536978
vn -0.46536978 0.75290234 0.46536978
vn -0.46536978 0.75290234 -0.46536978
vn -0.99197330 -0.12644751 0.0000000e+0
vn -0.99197330 -0.12644751 0.0000000e+0
vn 0.0000000e+0 -0.12644751 -0.99197330
vn 6.3911496e-17 0.85062527 -0.52577244
vn 3.1955748e-17 0.85062527 -0.52577244
vn 4.7933622e-17 0.85062527 -0.52577244
vn 6.3911496e-17 0.85062527 -0.52577244
vn 0.0000000e+0 -0.12644751 -0.99197330
vn 0.0000000e+0 -0.12644751 -0.99197330
vn 0.46536978 0.75290234 0.46536978
vn 0.46536978 0.75290234 -0.46536978
vn 0.46536978 0.75290234 0.46536978
vn 0.46536978 0.75290234 -0.46536978
vn 0.95438856 0.29856737 0.0000000e+0
vn 0.95438856 0.29856737 0.0000000e+0
vn 0.95438856 0.29856737 0.0000000e+0
vn 0.0000000e+0 -0.12644751 0.99197330
vn -6.3911496e-17 0.85062527 0.52577244
vn -3.1955748e-17 0.85062527 0.52577244
vn -6.3911496e-17 0.85062527 0.52577244
vn -4.7933622e-17 0.85062527 0.52577244
vn 0.0000000e+0 -0.12644751 0.99197330
vn 0.0000000e+0 -0.12644751 0.99197330
vn 0.0000000e+0 0.73834004 0.67442864
vn 0.0000000e+0 0.73834004 -0.67442864
vn 0.0000000e+0 0.73834004 0.67442864
vn 0.0000000e+0 0.73834004 -0.67442864
vn 0.67585260 -0.42386949 -0.60295764
vn 0.67585260 -0.42386949 -0.60295764
vn 0.93562538 0.26488233 -0.23332918
vn 0.93562538 0.26488233 -0.23332918
vn 0.93562538 0.26488233 0.23332918
vn 0.67585260 -0.42386949 0.60295764
vn 0.93562538 0.26488233 0.23332918
vn 0.67585260 -0.42386949 0.60295764
g cube1_default
usemtl default
f 1//1 4//12 3//8 2//4
f 1//2 5//15 8//27 4//14
f 2//5 6//19 5//17 1//3
f 2//7 9//30 12//48 6//21
f 3//10 10//35 9//29 2//6
f 4//13 8//26 7//22 3//9
f 6//18 7//23 8//28 5//16
f 6//20 12//47 11//42 7//25
f 7//24 11//41 10//36 3//11
f 9//32 17//73 12//51
f 9//33 20//93 13//55
f 10//39 20//94 9//34
f 10//40 23//106 14//59
f 11//44 18//79 15//62
f 11//46 22//100 23//104 10//38
f 12//50 17//72 16//66
f 12//52 18//80 11//45
f 13//53 17//67 9//31
f 13//54 20//90 17//69
f 14//57 19//83 20//92
f 14//58 23//103 19//85
f 15//61 18//76 19//82
f 15//60 22//99 11//43
f 16//65 17//71 18//77
f 18//74 12//49 16//64
f 18//75 17//68 21//96
f 19//87 22//102 15//63
f 20//88 10//37 14//56
f 20//89 19//81 21//95
f 21//97 17//70 20//91
f 21//98 19//84 18//78
f 23//105 22//101 19//86
